<svg height="22" width="26" xmlns="http://www.w3.org/2000/svg"><path d="m25.676 5.937-2.561 9.282c-.119.433-.513.734-.964.734h-13.44-.001c-.11 0-.218-.019-.32-.053-.05-.017-.092-.049-.138-.073-.049-.026-.101-.044-.145-.077-.04-.031-.07-.074-.105-.11-.039-.041-.084-.076-.116-.123-.026-.038-.039-.085-.059-.127-.029-.057-.063-.109-.081-.172l-.089-.327-2.47-8.954c-.007-.024.001-.049-.003-.073l-.774-2.823-3.106-.136c-.552-.024-.98-.491-.956-1.043.024-.549.456-1 1.043-.954l3.835.167c.433.018.805.315.921.734l.784 2.862h17.781c.313 0 .607.146.796.395.189.248.251.57.168.871zm-18.197.734 1.996 7.282h11.915l2.009-7.282zm3.619 9.732c1.517 0 2.75 1.233 2.75 2.749 0 1.517-1.233 2.75-2.75 2.75s-2.75-1.233-2.75-2.75c0-1.516 1.233-2.749 2.75-2.749zm0 3.499c.413 0 .75-.337.75-.75s-.337-.749-.75-.749-.75.336-.75.749.337.75.75.75zm8.334-3.499c1.517 0 2.751 1.233 2.751 2.749 0 1.517-1.234 2.75-2.751 2.75-1.516 0-2.75-1.233-2.75-2.75 0-1.516 1.234-2.749 2.75-2.749zm0 3.499c.414 0 .75-.337.75-.75s-.336-.749-.75-.749c-.413 0-.75.336-.75.749s.337.75.75.75z" fill="#fff" fill-rule="evenodd"/></svg>