<svg height="25" width="26" xmlns="http://www.w3.org/2000/svg"><path d="m23.637 13.554h-.936v2.749c0 .384-.218.733-.564.9-.139.067-.287.1-.436.1-.22 0-.441-.073-.621-.216l-3.359-2.655v4.371c0 1.102-.899 1.999-2 1.999h-5.971l-4.473 3.533c-.18.143-.401.216-.621.216-.149 0-.297-.033-.436-.099-.346-.167-.564-.517-.564-.901v-2.749h-.936c-1.104 0-2-.897-2-1.999v-8.737c0-1.102.896-1.999 2-1.999h5.916v-5.249c0-1.102.899-1.999 2-1.999h13.001c1.104 0 2 .897 2 1.999v8.736c0 1.103-.896 2-2 2zm-20.917 5.249h1.936c.552 0 1 .447 1 .999v1.686l3.125-2.47c.178-.139.396-.215.621-.215h6.319v-8.737h-13.001zm20.917-15.985h-13.001v5.249h5.085c1.101 0 2 .897 2 1.999v1.818l2.98 2.355v-1.685c0-.553.448-1 1-1h1.936z" fill="#fff" fill-rule="evenodd"/></svg>