<svg 
 xmlns="http://www.w3.org/2000/svg"
 xmlns:xlink="http://www.w3.org/1999/xlink"
 width="23px" height="23px">
<path fill-rule="evenodd"  fill="rgb(255, 255, 255)"
 d="M11.470,23.002 C5.244,23.002 0.178,17.938 0.178,11.713 C0.178,5.489 5.244,0.425 11.470,0.425 C17.696,0.425 22.762,5.489 22.762,11.713 C22.762,17.938 17.696,23.002 11.470,23.002 ZM11.470,2.424 C6.347,2.424 2.179,6.591 2.179,11.713 C2.179,16.835 6.347,21.002 11.470,21.002 C16.593,21.002 20.762,16.835 20.762,11.713 C20.762,6.591 16.593,2.424 11.470,2.424 ZM11.587,16.290 C11.392,16.486 11.136,16.584 10.880,16.584 C10.624,16.584 10.368,16.486 10.173,16.290 C9.783,15.901 9.783,15.267 10.173,14.877 L12.335,12.713 L6.761,12.713 C6.208,12.713 5.761,12.266 5.761,11.713 C5.761,11.161 6.208,10.714 6.761,10.714 L12.335,10.714 L10.173,8.550 C9.783,8.160 9.783,7.526 10.173,7.136 C10.564,6.746 11.197,6.746 11.587,7.136 L15.455,11.006 C15.845,11.397 15.845,12.030 15.455,12.420 L11.587,16.290 Z"/>
</svg>