<svg 
 xmlns="http://www.w3.org/2000/svg"
 xmlns:xlink="http://www.w3.org/1999/xlink"
 width="20px" height="23px">
<path fill-rule="evenodd"  fill="rgb(54, 157, 253)"
 d="M18.975,16.323 L12.975,22.322 C12.787,22.509 12.533,22.615 12.267,22.615 L1.935,22.615 C1.382,22.615 0.935,22.167 0.935,21.614 L0.935,1.091 C0.935,0.539 1.382,0.091 1.935,0.091 L18.268,0.091 C18.820,0.091 19.268,0.539 19.268,1.091 L19.268,15.616 C19.268,15.882 19.162,16.135 18.975,16.323 ZM12.767,19.701 L16.354,16.116 L12.767,16.116 L12.767,19.701 ZM17.268,2.091 L2.935,2.091 L2.935,20.615 L11.767,20.615 L11.767,15.616 C11.767,15.340 11.991,15.116 12.267,15.116 L17.268,15.116 L17.268,2.091 ZM9.525,12.001 C9.491,12.005 9.456,12.007 9.422,12.007 C9.193,12.007 8.969,11.928 8.790,11.782 L6.282,9.741 C5.854,9.392 5.789,8.762 6.138,8.334 C6.486,7.907 7.117,7.841 7.546,8.190 L9.275,9.598 L13.227,4.712 C13.573,4.284 14.201,4.214 14.633,4.564 C15.063,4.911 15.129,5.540 14.781,5.970 L10.199,11.636 C10.032,11.841 9.790,11.973 9.525,12.001 Z"/>
</svg>