<svg 
 xmlns="http://www.w3.org/2000/svg"
 xmlns:xlink="http://www.w3.org/1999/xlink"
 width="22px" height="21px">
<path fill-rule="evenodd"  fill="rgb(54, 157, 253)"
 d="M21.722,18.464 C21.540,18.646 21.302,18.737 21.063,18.737 C20.825,18.737 20.586,18.646 20.404,18.464 L17.420,15.483 C17.320,15.554 17.209,15.608 17.105,15.673 L17.105,20.059 C17.105,20.574 16.688,20.990 16.173,20.990 L6.538,20.990 C6.291,20.990 6.054,20.892 5.879,20.718 L0.284,15.127 C0.109,14.952 0.011,14.715 0.011,14.467 L0.011,0.930 C0.011,0.415 0.428,-0.002 0.943,-0.002 L16.173,-0.002 C16.688,-0.002 17.105,0.415 17.105,0.930 L17.105,4.668 C18.948,5.819 20.185,7.850 20.185,10.178 C20.185,11.698 19.639,13.079 18.762,14.188 L21.722,17.147 C22.087,17.511 22.087,18.100 21.722,18.464 ZM6.072,18.275 L6.072,14.933 L2.728,14.933 L6.072,18.275 ZM15.240,1.862 L1.876,1.862 L1.876,14.002 L6.538,14.002 C6.796,14.002 7.005,14.210 7.005,14.467 L7.005,19.127 L15.240,19.127 L15.240,16.472 C14.735,16.600 14.214,16.687 13.669,16.687 C10.079,16.687 7.156,13.767 7.154,10.179 C7.156,6.589 10.079,3.667 13.671,3.665 C14.215,3.665 14.735,3.752 15.240,3.878 L15.240,1.862 ZM13.671,5.529 C11.108,5.531 9.021,7.616 9.019,10.179 C9.021,12.739 11.106,14.823 13.669,14.823 C16.235,14.823 18.320,12.739 18.320,10.178 C18.320,7.614 16.235,5.529 13.671,5.529 Z"/>
</svg>