<svg enable-background="new 0 0 1000 1000" viewBox="0 0 1000 1000" xmlns="http://www.w3.org/2000/svg"><path d="m774.7 625.4-92.3-71.6c-6.4-5-19.6-5.7-26.6-1.5l-66.2 39.9h-3.5c-3.7 0-37.5-2-100.3-61.6-57-60.3-61.7-95.9-62-99.8l-.4-4 40.2-66.6c4.4-7.2 3.7-19.9-1.5-26.5l-71.6-92.4c-6.3-8.1-14.9-12.6-24.3-12.6-8 0-15.8 3.4-22.1 9.7l-48.9 48.9c-15.8 15.8-22.4 47.1-14.2 67l.5 1.4c.3 1 28.7 99.8 153.8 225 129.7 129.4 223.7 153.8 224.6 154l1.4.4c5.7 2.2 12.6 3.3 19.8 3.3 18.1 0 36.8-7 47.7-17.9l48.8-48.9c6.8-6.7 10.2-15.2 9.6-23.9-.5-8.5-5-16.4-12.5-22.3z"/><path d="m500 10c-270.6 0-490 219.4-490 490s219.4 490 490 490 490-219.4 490-490-219.4-490-490-490zm295 679.1-48.9 48.8c-15.4 15.4-40.4 25-65 25-10 0-19.4-1.6-27.8-4.7-10-2.7-105.4-30.7-235.3-160.5-125.8-125.7-156.8-224.5-159.9-234.9-11.8-29.4-3.2-70.1 19.8-93l48.9-48.9c10.9-10.9 24.9-16.9 39.4-16.9 16.8 0 32.8 8.1 43.6 22.1l71.6 92.4c11.3 14.6 12.7 38.4 3.1 54.2l-35.5 59.1c2.6 9.4 13.2 38 54.2 81.4 44.8 42.4 72 51.8 80.6 53.9l59.4-35.8c15.5-9.4 40-7.9 54.3 3.1l92.3 71.6c13.2 10.2 21 24.6 22 40.3.9 15.8-5 31-16.8 42.8z"/></svg>